<?xml version="1.0" encoding="UTF-8" standalone="no"?><!DOCTYPE svg PUBLIC "-//W3C//DTD SVG 1.1//EN" "http://www.w3.org/Graphics/SVG/1.1/DTD/svg11.dtd"><svg width="100%" height="100%" viewBox="0 0 328 328" version="1.1" xmlns="http://www.w3.org/2000/svg" xmlns:xlink="http://www.w3.org/1999/xlink" xml:space="preserve" xmlns:serif="http://www.serif.com/" style="fill-rule:evenodd;clip-rule:evenodd;stroke-linecap:round;stroke-linejoin:round;"><path d="M327.68,12.32l0,303.041c0,6.799 -5.52,12.32 -12.32,12.32l-303.041,0c-6.799,0 -12.32,-5.52 -12.32,-12.32l0,-303.041c0,-6.799 5.52,-12.32 12.32,-12.32l303.041,0c6.799,0 12.32,5.52 12.32,12.32Z" style="fill:#1f2839;"/><rect x="20.48" y="61.44" width="286.72" height="204.8" style="fill:#ef5378;"/><path d="M20.48,276.48l0,-244.531c0,-6.33 5.139,-11.469 11.469,-11.469l263.782,0c6.33,0 11.469,5.139 11.469,11.469l0,263.782c0,6.33 -5.139,11.469 -11.469,11.469l-244.531,0l-30.72,-30.72Zm225.28,-194.56l-40.96,-20.48l-81.92,0l-40.96,20.48l163.84,0Z" style="fill:#fff;"/><g transform="matrix(8.533333,0,0,8.533333,303.028608,289.473261)"></g><text x="67.457px" y="289.473px" style="font-family:'Geist-Bold', 'Geist';font-weight:700;font-size:8.533px;fill:#a8a4a5;">A CO<tspan x="88.441px " y="289.473px ">N</tspan>SO<tspan x="107.095px " y="289.473px ">L</tspan>E A<tspan x="125.604px 131.876px " y="289.473px 289.473px ">ND</tspan> CO<tspan x="152.663px 160.36px " y="289.473px 289.473px ">MM</tspan>UNIT<tspan x="188.639px " y="289.473px ">Y</tspan> B<tspan x="202.267px 208.232px 213.906px " y="289.473px 289.473px 289.473px ">ASE</tspan>D ICO<tspan x="242.493px " y="289.473px ">N</tspan> GEN<tspan x="268.639px " y="289.473px ">E</tspan>RA<tspan x="285.382px 290.604px 297.081px " y="289.473px 289.473px 289.473px ">TOR</tspan></text><rect x="20.48" y="71.68" width="286.72" height="194.56" style="fill:#ef5378;"/><g><path d="M170.991,125.361l-30.826,-30.826c-6.696,-6.663 -17.678,-6.663 -24.374,0l-18.639,18.639c-6.663,6.696 -6.663,17.678 -0,24.374l30.826,30.826" style="fill:none;fill-rule:nonzero;stroke:#fff;stroke-width:14.34px;"/><path d="M135.147,118.192l14.338,-14.338" style="fill:none;fill-rule:nonzero;stroke:#fff;stroke-width:14.34px;"/><path d="M206.835,189.881l14.338,-14.338" style="fill:none;fill-rule:nonzero;stroke:#fff;stroke-width:14.34px;"/><path d="M199.666,154.036l30.826,30.826c6.739,6.739 6.739,17.635 0,24.374l-18.639,18.639c-6.739,6.739 -17.635,6.739 -24.374,0l-30.826,-30.826" style="fill:none;fill-rule:nonzero;stroke:#fff;stroke-width:14.34px;"/><path d="M229.589,124.013c3.789,-3.788 5.921,-8.933 5.921,-14.291c0,-11.086 -9.122,-20.208 -20.208,-20.208c-5.357,0 -10.499,2.13 -14.287,5.917l-95.675,95.697c-1.664,1.659 -2.895,3.703 -3.584,5.95l-9.47,31.199c-0.1,0.333 -0.15,0.679 -0.15,1.026c0,1.966 1.618,3.584 3.584,3.584c0.35,0 0.697,-0.051 1.032,-0.152l31.206,-9.463c2.245,-0.683 4.288,-1.906 5.95,-3.563l95.682,-95.697Z" style="fill:none;fill-rule:nonzero;stroke:#fff;stroke-width:14.34px;"/><path d="M185.328,111.024l28.675,28.675" style="fill:none;fill-rule:nonzero;stroke:#fff;stroke-width:14.34px;"/></g><g><g transform="matrix(25.354775,0,0,25.354775,162.645635,49.123866)"></g><text x="101.541px" y="49.124px" style="font-family:'Geist-UltraBlack', 'Geist';font-weight:900;font-size:25.355px;">R<tspan x="119.264px 138.838px " y="49.124px 49.124px ">OM</tspan></text><g transform="matrix(25.354775,0,0,25.354775,225.454793,49.123866)"></g><text x="161.611px" y="49.124px" style="font-family:'Geist-UltraBlack', 'Geist';font-weight:900;font-size:25.355px;fill:url(#_Linear1);">GRID</text></g><defs><linearGradient id="_Linear1" x1="0" y1="0" x2="1" y2="0" gradientUnits="userSpaceOnUse" gradientTransform="matrix(63.843322,0,0,28.904443,161.61147,40.249695)"><stop offset="0" style="stop-color:#ef5378;stop-opacity:1"/><stop offset="1" style="stop-color:#529ad6;stop-opacity:1"/></linearGradient></defs></svg>